<svg width="50" height="51" viewBox="0 0 50 51" fill="none" xmlns="http://www.w3.org/2000/svg">
<path d="M23.8878 47.0703C23.8878 47.6444 23.891 48.2184 23.8878 48.7925C23.8799 49.7677 23.4058 50.18 22.4353 50.096C20.1486 49.8962 17.9634 49.292 15.8527 48.4246C10.0076 46.0237 5.55478 42.0625 2.63697 36.4489C1.10829 33.5073 0.213914 30.3675 0.0410653 27.0405C-0.0160223 25.9352 0.280511 25.6324 1.40323 25.6244C2.49266 25.6165 3.58208 25.5959 4.67308 25.6006C5.47707 25.6038 5.7308 25.848 5.80691 26.6361C6.59504 34.7156 12.0992 41.3616 19.879 43.5848C20.8225 43.8544 21.8025 44.0114 22.7746 44.1668C23.6959 44.3127 23.9243 44.5426 23.9084 45.4687C23.8989 46.0031 23.9069 46.5375 23.9069 47.0719C23.9005 47.0719 23.8942 47.0719 23.8878 47.0719V47.0703ZM25.9493 46.934C25.9493 47.5873 25.9129 48.2422 25.9573 48.8924C26.0239 49.8724 26.4663 50.245 27.4399 50.1039C28.6118 49.9342 29.7948 49.7709 30.935 49.4664C38.3913 47.4731 43.8352 42.9553 47.3826 36.1507C48.8874 33.2631 49.7232 30.1661 49.8833 26.901C49.9277 26.005 49.5741 25.6022 48.6829 25.5975C47.4745 25.5927 46.2646 25.6086 45.0562 25.6276C44.4441 25.6371 44.1206 25.9638 44.0715 26.5743C44.0302 27.0865 44.016 27.605 43.9287 28.1093C43.0407 33.3106 40.4321 37.4669 36.2013 40.5909C33.4119 42.6508 30.2642 43.8544 26.8136 44.2683C26.1047 44.3539 25.9097 44.614 25.9081 45.3308C25.9081 45.8652 25.9081 46.3996 25.9081 46.934C25.9208 46.934 25.9351 46.934 25.9477 46.934H25.9493ZM46.9195 23.5106C47.5142 23.5106 48.1088 23.5122 48.7035 23.5106C49.5551 23.5074 49.9467 23.1538 49.8199 22.3086C49.5899 20.7704 49.4266 19.1973 48.9572 17.7273C46.3439 9.53364 40.8682 4.07702 32.7887 1.20836C30.9968 0.572472 29.1415 0.168102 27.2354 0.0364829C26.3965 -0.0221905 25.9937 0.29972 25.9652 1.12432C25.924 2.31206 25.916 3.4998 25.9224 4.68754C25.9287 5.57874 26.1238 5.80868 27.0276 5.89431C29.4903 6.12583 31.7802 6.89493 33.9353 8.07949C38.1011 10.3693 41.2663 13.5948 42.9535 18.0873C43.4958 19.5319 43.7131 21.0986 44.062 22.6146C44.2253 23.3251 44.4251 23.5154 45.1339 23.5169C45.7286 23.5169 46.3233 23.5169 46.9179 23.5169V23.5106H46.9195ZM23.8878 3.06054C23.8878 2.40721 23.8973 1.75387 23.8847 1.10212C23.872 0.350465 23.4073 -0.0697635 22.6652 0.00952485C20.4578 0.24739 18.3012 0.731049 16.2317 1.53503C10.6958 3.68533 6.38889 7.31833 3.28713 12.3738C1.41751 15.4216 0.35346 18.7438 0.00934804 22.2959C-0.0683545 23.0983 0.340771 23.5233 1.14634 23.5233C2.39434 23.5233 3.64234 23.5122 4.89033 23.5122C5.43267 23.5122 5.73238 23.2458 5.80532 22.7177C5.85924 22.326 5.87668 21.9296 5.95121 21.5427C6.49672 18.7248 7.47831 16.1082 9.22583 13.774C11.17 11.1797 13.6533 9.28626 16.495 7.81626C18.5866 6.73476 20.8273 6.11632 23.1615 5.83405C23.715 5.76745 23.9005 5.47408 23.8894 4.96029C23.8751 4.32757 23.8862 3.69326 23.8862 3.06054C23.8862 3.06054 23.8862 3.06054 23.8878 3.06054Z" fill="white"/>
<path d="M18.3634 38.1938L22.5548 9.66931H25.9628L21.7714 38.1938H18.3634ZM24.4155 38.1938L28.6069 9.66931H32.0149L27.8235 38.1938H24.4155ZM34.326 21.2084H17.1687V17.8192H34.326V21.2084ZM33.0529 30.1615H15.9543V26.7722H33.0529V30.1615Z" fill="white"/>
</svg>
